HIERARCHY
ROOT Hips
{
	OFFSET 0.000000 83.214638 0.000000
	CHANNELS 6 Xposition Yposition Zposition Xrotation Yrotation Zrotation
	JOINT Pelvis
	{
		OFFSET 0.000000 0.000000 0.000000
		CHANNELS 3 Xrotation Yrotation Zrotation
		JOINT LeftUpLeg
		{
			OFFSET 8.479700 -4.795502 -0.379100
			CHANNELS 3 Xrotation Yrotation Zrotation
			JOINT LeftLeg
			{
				OFFSET 0.024144 -32.555107 0.112900
				CHANNELS 3 Xrotation Yrotation Zrotation
				JOINT LeftFoot
				{
					OFFSET -0.024144 -32.638630 -3.012600
					CHANNELS 3 Xrotation Yrotation Zrotation
					JOINT LeftToeBase
					{
						OFFSET 0.970200 -13.225400 11.864200
						CHANNELS 3 Xrotation Yrotation Zrotation
						End Site
						{
							OFFSET 0.000000 12.319262 0.000000
						}
					}
					JOINT LFootTongue
					{
						OFFSET 1.142400 -1.059800 6.665200
						CHANNELS 3 Xrotation Yrotation Zrotation
						End Site
						{
							OFFSET 0.000000 12.319262 0.000000
						}
					}
				}
				JOINT LeftPantLeg
				{
					OFFSET 0.918482 -16.533964 -2.284700
					CHANNELS 3 Xrotation Yrotation Zrotation
					End Site
					{
						OFFSET 0.350399 24.744368 0.000000
					}
				}
			}
		}
		JOINT RightUpLeg
		{
			OFFSET -8.479700 -4.795502 -0.379100
			CHANNELS 3 Xrotation Yrotation Zrotation
			JOINT RightLeg
			{
				OFFSET -0.023144 -32.555092 0.112900
				CHANNELS 3 Xrotation Yrotation Zrotation
				JOINT RightFoot
				{
					OFFSET 0.023144 -32.638641 -3.012700
					CHANNELS 3 Xrotation Yrotation Zrotation
					JOINT RightToeBase
					{
						OFFSET -0.970200 -13.225400 11.864200
						CHANNELS 3 Xrotation Yrotation Zrotation
						End Site
						{
							OFFSET 0.000000 12.319244 0.000000
						}
					}
					JOINT RFootTongue
					{
						OFFSET -1.142200 -1.059800 6.665200
						CHANNELS 3 Xrotation Yrotation Zrotation
						End Site
						{
							OFFSET 0.000000 12.319243 0.000000
						}
					}
				}
				JOINT RightPantLeg
				{
					OFFSET -0.919482 -16.533978 -2.284800
					CHANNELS 3 Xrotation Yrotation Zrotation
					End Site
					{
						OFFSET -0.350400 24.744419 0.000000
					}
				}
			}
		}
	}
	JOINT Spine
	{
		OFFSET 0.000000 7.722000 1.166200
		CHANNELS 3 Xrotation Yrotation Zrotation
		JOINT Spine1
		{
			OFFSET 0.000000 12.024101 0.248800
			CHANNELS 3 Xrotation Yrotation Zrotation
			JOINT Spine2
			{
				OFFSET 0.000000 11.502998 -0.491200
				CHANNELS 3 Xrotation Yrotation Zrotation
				JOINT Neck
				{
					OFFSET 0.000000 18.430702 -3.123100
					CHANNELS 3 Xrotation Yrotation Zrotation
					JOINT Head
					{
						OFFSET 0.000000 9.051102 1.034000
						CHANNELS 3 Xrotation Yrotation Zrotation
						JOINT HairB
						{
							OFFSET 0.208400 24.786102 24.822300
							CHANNELS 3 Xrotation Yrotation Zrotation
							End Site
							{
								OFFSET 0.000000 32.263779 0.000000
							}
						}
						JOINT HairA
						{
							OFFSET -7.081100 24.428299 23.196600
							CHANNELS 3 Xrotation Yrotation Zrotation
							End Site
							{
								OFFSET 0.000000 32.263779 0.000000
							}
						}
						JOINT Hat
						{
							OFFSET 16.728800 15.048294 -15.439601
							CHANNELS 3 Xrotation Yrotation Zrotation
							End Site
							{
								OFFSET 0.000000 32.263779 0.000000
							}
						}
					}
				}
				JOINT LeftShoulder
				{
					OFFSET 6.197800 13.665199 -4.064700
					CHANNELS 3 Xrotation Yrotation Zrotation
					JOINT LeftArm
					{
						OFFSET 7.778100 -0.187103 -1.709300
						CHANNELS 3 Xrotation Yrotation Zrotation
						JOINT LeftForeArm
						{
							OFFSET 22.049376 0.000000 0.000000
							CHANNELS 3 Xrotation Yrotation Zrotation
							JOINT LeftHand
							{
								OFFSET 23.009392 0.000000 0.000000
								CHANNELS 3 Xrotation Yrotation Zrotation
								JOINT LeftHandThumb1
								{
									OFFSET 3.507191 -2.063065 3.133727
									CHANNELS 3 Xrotation Yrotation Zrotation
									JOINT LeftHandThumb2
									{
										OFFSET 3.101337 -1.790558 1.790558
										CHANNELS 3 Xrotation Yrotation Zrotation
										JOINT LeftHandThumb3
										{
											OFFSET 3.058640 -1.765907 1.765906
											CHANNELS 3 Xrotation Yrotation Zrotation
											End Site
											{
												OFFSET -0.415260 3.926476 -0.049563
											}
										}
									}
								}
								JOINT LeftHandIndex1
								{
									OFFSET 11.334419 -0.901459 3.706815
									CHANNELS 3 Xrotation Yrotation Zrotation
									JOINT LeftHandIndex2
									{
										OFFSET 3.283112 0.000000 0.000000
										CHANNELS 3 Xrotation Yrotation Zrotation
										JOINT LeftHandIndex3
										{
											OFFSET 3.323853 0.000000 0.000000
											CHANNELS 3 Xrotation Yrotation Zrotation
											End Site
											{
												OFFSET -1.135597 3.097809 0.402452
											}
										}
									}
								}
								JOINT LeftHandMiddle1
								{
									OFFSET 11.335861 0.000000 0.000000
									CHANNELS 3 Xrotation Yrotation Zrotation
									JOINT LeftHandMiddle2
									{
										OFFSET 3.410492 0.000000 0.000000
										CHANNELS 3 Xrotation Yrotation Zrotation
										JOINT LeftHandMiddle3
										{
											OFFSET 3.312172 0.000000 0.000000
											CHANNELS 3 Xrotation Yrotation Zrotation
											End Site
											{
												OFFSET -1.150200 3.080154 0.400270
											}
										}
									}
								}
								JOINT LeftHandRing1
								{
									OFFSET 11.514786 -0.013176 -3.003090
									CHANNELS 3 Xrotation Yrotation Zrotation
									JOINT LeftHandRing2
									{
										OFFSET 3.053307 0.000000 0.000000
										CHANNELS 3 Xrotation Yrotation Zrotation
										JOINT LeftHandRing3
										{
											OFFSET 3.295807 0.000000 0.000000
											CHANNELS 3 Xrotation Yrotation Zrotation
											End Site
											{
												OFFSET -1.281006 3.013344 0.375733
											}
										}
									}
								}
								JOINT LeftHandPinky1
								{
									OFFSET 10.518692 -0.960396 -5.730441
									CHANNELS 3 Xrotation Yrotation Zrotation
									JOINT LeftHandPinky2
									{
										OFFSET 2.861649 0.000000 0.000000
										CHANNELS 3 Xrotation Yrotation Zrotation
										JOINT LeftHandPinky3
										{
											OFFSET 2.863380 0.000000 0.000000
											CHANNELS 3 Xrotation Yrotation Zrotation
											End Site
											{
												OFFSET -0.843597 2.711159 0.369971
											}
										}
									}
								}
							}
							JOINT LSleeve
							{
								OFFSET 6.676277 -0.344902 -1.011730
								CHANNELS 3 Xrotation Yrotation Zrotation
								End Site
								{
									OFFSET 0.000000 14.885353 0.000000
								}
							}
						}
					}
				}
				JOINT RightShoulder
				{
					OFFSET -6.197800 13.665199 -4.064700
					CHANNELS 3 Xrotation Yrotation Zrotation
					JOINT RightArm
					{
						OFFSET -7.778100 -0.187103 -1.709300
						CHANNELS 3 Xrotation Yrotation Zrotation
						JOINT RightForeArm
						{
							OFFSET -22.049376 0.000000 0.000000
							CHANNELS 3 Xrotation Yrotation Zrotation
							JOINT RightHand
							{
								OFFSET -23.009392 0.000000 0.000000
								CHANNELS 3 Xrotation Yrotation Zrotation
								JOINT RightHandThumb1
								{
									OFFSET -3.507191 -2.063065 3.133727
									CHANNELS 3 Xrotation Yrotation Zrotation
									JOINT RightHandThumb2
									{
										OFFSET -3.101337 -1.790558 1.790558
										CHANNELS 3 Xrotation Yrotation Zrotation
										JOINT RightHandThumb3
										{
											OFFSET -3.058640 -1.765907 1.765906
											CHANNELS 3 Xrotation Yrotation Zrotation
											End Site
											{
												OFFSET 0.415260 3.926476 -0.049563
											}
										}
									}
								}
								JOINT RightHandIndex1
								{
									OFFSET -11.334419 -0.901459 3.706815
									CHANNELS 3 Xrotation Yrotation Zrotation
									JOINT RightHandIndex2
									{
										OFFSET -3.283112 0.000000 0.000000
										CHANNELS 3 Xrotation Yrotation Zrotation
										JOINT RightHandIndex3
										{
											OFFSET -3.323853 0.000000 0.000000
											CHANNELS 3 Xrotation Yrotation Zrotation
											End Site
											{
												OFFSET 1.135597 3.097809 0.402452
											}
										}
									}
								}
								JOINT RightHandMiddle1
								{
									OFFSET -11.335861 0.000000 0.000000
									CHANNELS 3 Xrotation Yrotation Zrotation
									JOINT RightHandMiddle2
									{
										OFFSET -3.410492 0.000000 0.000000
										CHANNELS 3 Xrotation Yrotation Zrotation
										JOINT RightHandMiddle3
										{
											OFFSET -3.312172 0.000000 0.000000
											CHANNELS 3 Xrotation Yrotation Zrotation
											End Site
											{
												OFFSET 1.150200 3.080154 0.400270
											}
										}
									}
								}
								JOINT RightHandRing1
								{
									OFFSET -11.514786 -0.013176 -3.003090
									CHANNELS 3 Xrotation Yrotation Zrotation
									JOINT RightHandRing2
									{
										OFFSET -3.053307 0.000000 0.000000
										CHANNELS 3 Xrotation Yrotation Zrotation
										JOINT RightHandRing3
										{
											OFFSET -3.295807 0.000000 0.000000
											CHANNELS 3 Xrotation Yrotation Zrotation
											End Site
											{
												OFFSET 1.281006 3.013344 0.375733
											}
										}
									}
								}
								JOINT RightHandPinky1
								{
									OFFSET -10.518692 -0.960396 -5.730441
									CHANNELS 3 Xrotation Yrotation Zrotation
									JOINT RightHandPinky2
									{
										OFFSET -2.861649 0.000000 0.000000
										CHANNELS 3 Xrotation Yrotation Zrotation
										JOINT RightHandPinky3
										{
											OFFSET -2.863380 0.000000 0.000000
											CHANNELS 3 Xrotation Yrotation Zrotation
											End Site
											{
												OFFSET 0.843597 2.711159 0.369971
											}
										}
									}
								}
							}
							JOINT RSleeve
							{
								OFFSET -6.676277 -0.344902 -1.011730
								CHANNELS 3 Xrotation Yrotation Zrotation
								End Site
								{
									OFFSET 0.000000 14.885353 0.000000
								}
							}
						}
					}
				}
				JOINT Backpack
				{
					OFFSET 0.000000 -2.471497 36.677502
					CHANNELS 3 Xrotation Yrotation Zrotation
					End Site
					{
						OFFSET 0.000000 20.427315 0.000000
					}
				}
				JOINT Hood
				{
					OFFSET 0.000000 18.754097 -10.431000
					CHANNELS 3 Xrotation Yrotation Zrotation
					JOINT Hood1
					{
						OFFSET 0.000000 -5.011002 -7.685901
						CHANNELS 3 Xrotation Yrotation Zrotation
						End Site
						{
							OFFSET 0.000000 9.175140 0.000000
						}
					}
				}
				JOINT LHoodieString
				{
					OFFSET 5.250500 16.397697 3.089900
					CHANNELS 3 Xrotation Yrotation Zrotation
					JOINT LHoodieString1
					{
						OFFSET 0.257700 -6.364304 3.694600
						CHANNELS 3 Xrotation Yrotation Zrotation
						JOINT LHoodieString2
						{
							OFFSET 0.000000 -9.643799 2.679100
							CHANNELS 3 Xrotation Yrotation Zrotation
							End Site
							{
								OFFSET 0.000000 10.009018 0.000000
							}
						}
					}
				}
				JOINT RHoodieString
				{
					OFFSET -5.250500 16.397697 3.089900
					CHANNELS 3 Xrotation Yrotation Zrotation
					JOINT RHoodieString1
					{
						OFFSET -0.257700 -6.364304 3.694600
						CHANNELS 3 Xrotation Yrotation Zrotation
						JOINT RHoodieString2
						{
							OFFSET 0.000000 -9.643799 2.679100
							CHANNELS 3 Xrotation Yrotation Zrotation
							End Site
							{
								OFFSET 0.000000 10.009018 0.000000
							}
						}
					}
				}
			}
			JOINT LBackpack_Strap
			{
				OFFSET 15.223200 -7.719803 -6.610900
				CHANNELS 3 Xrotation Yrotation Zrotation
				End Site
				{
					OFFSET 0.000000 16.040596 0.000000
				}
			}
			JOINT RBackpack_Strap
			{
				OFFSET -15.223000 -7.719803 -6.610900
				CHANNELS 3 Xrotation Yrotation Zrotation
				End Site
				{
					OFFSET 0.000000 16.040596 0.000000
				}
			}
		}
	}
	JOINT BoyFacialAnim_Joint
	{
		OFFSET 1.000000 -82.208099 -1.550900
		CHANNELS 3 Xrotation Yrotation Zrotation
		End Site
		{
			OFFSET 0.000000 30.012791 0.000000
		}
	}
}
MOTION
Frames: 4
Frame Time: 0.033333
-5.830571 77.445717 15.019841 -33.675725 73.767587 24.223233 0.000001 -0.000000 0.000001 -18.813596 12.188987 37.960566 17.612657 -8.597032 4.779123 4.473759 -23.764315 -24.995743 0.000001 -0.000001 0.000000 0.000001 -0.000001 0.000000 0.000000 -0.000000 -0.000001 1.733783 -16.659791 -5.654731 32.297878 -9.873886 5.610744 -17.666286 -11.875634 10.157298 -0.000000 0.000003 -0.000000 -0.000000 0.000003 -0.000000 0.000003 -0.000002 0.000002 -3.580723 1.530935 3.968972 -1.833258 1.677080 2.211290 -1.902978 1.506743 2.280072 -7.219408 -9.719690 1.421774 -19.714716 -42.479364 -17.344669 -0.000003 -0.000000 0.000001 -0.000003 -0.000000 0.000001 -0.000003 -0.000000 0.000001 1.729727 -6.955959 -8.218965 3.928308 29.639630 -51.630329 0.000007 -31.761701 -0.000001 -7.067194 5.839164 -14.464821 4.058522 30.384462 2.638388 3.939054 7.948711 0.746816 -0.000000 -0.000000 0.000002 0.496441 2.571601 -21.849278 0.537653 2.672016 -22.750389 -0.000002 0.000001 -0.000002 0.000004 -0.001918 0.015964 -0.000003 0.001919 -0.015976 0.000001 0.000000 0.000000 0.000006 0.000003 -0.000002 -0.000015 0.000002 -0.000016 0.000001 0.000002 -0.000004 1.996637 6.340047 -21.455499 0.542958 -1.386953 -23.222269 -0.000000 -0.000003 -0.000001 -0.000001 -0.000000 -0.000002 -2.621787 -8.908869 -17.124445 -44.896534 27.970052 -9.935562 0.000027 52.691023 -0.000020 -31.927047 -37.454964 -61.140718 24.959267 -13.898983 19.283144 4.637196 -8.634133 -0.225417 -0.000000 -0.000001 0.000001 1.524830 -4.349865 38.620888 2.369316 -5.231603 48.706065 -0.000004 -0.000002 -0.000000 -0.000001 0.000004 0.000015 -0.000004 -0.000020 0.000000 0.000002 0.000000 0.000001 -0.000012 -0.000003 0.000011 0.000012 0.000014 0.000031 -0.000004 -0.000001 0.000002 1.524829 -4.349842 38.620898 2.369306 -5.231606 48.706058 -0.000000 -0.000002 0.000002 0.000002 -0.000000 0.000001 0.000001 0.000001 -0.000000 0.000001 0.000001 -0.000000 0.000001 0.000001 -0.000000 0.000001 0.000001 -0.000000 0.000001 0.000001 -0.000000 0.000002 0.000001 0.000000 0.000001 0.000001 -0.000000 0.000001 0.000001 -0.000000 0.000002 0.000001 0.000000 0.000001 -0.000000 -0.000000 0.000001 -0.000000 -0.000000 0.000001 -0.000000 0.000001 
-5.982693 77.447227 15.050716 -34.144901 73.921116 24.786010 -0.000000 0.000000 -0.000001 -19.142275 11.948745 37.826035 17.914277 -8.575827 4.785907 5.235785 -23.677136 -24.715289 0.000000 0.000001 -0.000000 0.000000 0.000001 -0.000000 -0.000000 -0.000000 0.000005 1.534312 -16.641104 -5.693428 32.594752 -9.840137 5.674923 -17.802434 -12.064695 9.860422 0.000000 0.000003 -0.000000 0.000000 0.000003 -0.000000 0.000001 -0.000000 -0.000001 -3.506415 1.500719 4.059271 -1.788402 1.652801 2.236895 -1.856654 1.485707 2.303633 -7.129153 -9.704238 1.252252 -18.188256 -42.859628 -16.310070 -0.000000 -0.000002 0.000002 -0.000000 -0.000002 0.000002 -0.000000 -0.000002 0.000002 1.687316 -6.717316 -8.199611 4.383359 29.200527 -51.969618 -0.000004 -32.096886 0.000001 -7.585401 5.708641 -14.257515 4.058526 30.384465 2.638391 3.939052 7.948710 0.746819 0.000000 -0.000001 0.000002 0.496443 2.571604 -21.849280 0.537653 2.672019 -22.750390 -0.000000 0.000001 -0.000003 0.000006 -0.001921 0.015969 -0.000002 0.001920 -0.015974 0.000002 0.000001 0.000000 0.000009 0.000001 -0.000000 -0.000016 0.000003 -0.000012 -0.000000 -0.000000 -0.000002 1.996637 6.340041 -21.455499 0.542958 -1.386954 -23.222268 -0.000000 0.000002 -0.000002 -0.000001 0.000001 0.000001 -2.712596 -9.155192 -17.426569 -45.022326 28.192922 -9.913197 0.000002 52.672148 0.000003 -30.983517 -37.694182 -60.006456 24.959253 -13.898983 19.283133 4.637195 -8.634134 -0.225414 0.000001 0.000001 0.000002 1.524849 -4.349863 38.620905 2.369303 -5.231595 48.706045 -0.000001 -0.000002 0.000003 -0.000000 -0.000001 0.000009 -0.000009 -0.000016 0.000003 0.000002 -0.000003 -0.000001 -0.000012 -0.000008 0.000006 0.000015 0.000009 0.000032 -0.000006 -0.000003 0.000003 1.524843 -4.349841 38.620915 2.369301 -5.231604 48.706041 -0.000000 -0.000001 0.000002 -0.000001 -0.000001 -0.000002 -0.000001 -0.000000 -0.000000 -0.000001 -0.000000 -0.000000 -0.000001 -0.000000 -0.000000 -0.000001 -0.000000 -0.000000 -0.000001 -0.000000 -0.000000 0.000001 -0.000000 -0.000000 -0.000001 -0.000000 -0.000000 -0.000001 -0.000000 -0.000000 0.000001 -0.000000 -0.000000 -0.000001 -0.000000 -0.000000 -0.000001 -0.000000 -0.000000 -0.000000 0.000000 -0.000001 
-6.130931 77.438599 15.065184 -34.542787 74.066544 25.322342 -0.000000 -0.000000 -0.000000 -19.395509 11.752472 37.628315 18.126366 -8.561329 4.787039 5.848206 -23.568471 -24.492251 -0.000000 0.000002 -0.000000 -0.000000 0.000002 -0.000000 0.000000 0.000000 0.000001 1.270496 -16.667555 -5.821991 32.951254 -9.831589 5.743552 -17.982730 -12.186616 9.574419 -0.000000 0.000003 0.000000 -0.000000 0.000003 0.000000 0.000001 -0.000001 0.000001 -3.443764 1.459094 4.175575 -1.750228 1.617445 2.275638 -1.816022 1.453256 2.340033 -6.920279 -9.704538 1.060327 -15.952522 -43.450023 -14.693048 0.000001 0.000000 -0.000003 0.000001 0.000000 -0.000003 0.000001 0.000000 -0.000003 1.646092 -6.384727 -8.212281 5.263103 28.658743 -52.436172 -0.000024 -32.792507 -0.000010 -8.066109 5.773289 -14.114758 4.058524 30.384459 2.638390 3.939053 7.948709 0.746818 0.000000 -0.000001 0.000004 0.496444 2.571604 -21.849278 0.537653 2.672014 -22.750390 -0.000001 0.000004 -0.000001 0.000005 -0.001924 0.015965 0.000001 0.001924 -0.015975 0.000003 -0.000000 0.000000 0.000008 -0.000003 -0.000001 -0.000015 0.000000 -0.000009 0.000001 -0.000000 -0.000007 1.996637 6.340042 -21.455502 0.542959 -1.386952 -23.222271 0.000000 -0.000003 0.000001 0.000000 0.000002 -0.000002 -2.787826 -9.304102 -17.909538 -45.010175 28.228610 -10.088648 0.000003 52.806733 0.000003 -30.260614 -38.064631 -58.973615 24.959272 -13.898993 19.283142 4.637196 -8.634139 -0.225415 0.000000 0.000001 -0.000001 1.524860 -4.349865 38.620888 2.369293 -5.231607 48.706072 -0.000001 -0.000002 -0.000002 0.000003 0.000001 0.000013 -0.000008 -0.000019 0.000006 -0.000001 0.000002 0.000004 -0.000008 -0.000008 0.000008 0.000008 0.000008 0.000030 -0.000001 0.000001 0.000002 1.524849 -4.349846 38.620891 2.369292 -5.231611 48.706062 0.000001 -0.000004 -0.000004 -0.000002 -0.000000 0.000000 -0.000001 0.000000 0.000000 -0.000001 0.000000 0.000000 -0.000001 0.000000 0.000000 -0.000001 0.000000 0.000000 -0.000001 0.000000 -0.000000 -0.000001 0.000000 -0.000000 -0.000001 0.000000 0.000000 -0.000001 0.000000 -0.000000 -0.000001 0.000000 -0.000000 0.000000 -0.000000 -0.000000 0.000000 -0.000000 -0.000000 -0.000000 -0.000000 -0.000000 
-6.266550 77.422829 15.072689 -34.703406 74.189412 25.621877 -0.000000 -0.000000 0.000001 -19.605836 11.595692 37.449893 18.246546 -8.553040 4.766672 6.297490 -23.507891 -24.333261 0.000000 0.000000 -0.000000 0.000000 0.000000 -0.000000 -0.000000 0.000000 -0.000002 0.960966 -16.713142 -5.989999 33.298426 -9.824847 5.822040 -18.142924 -12.242788 9.372783 0.000000 0.000001 -0.000000 0.000000 0.000001 -0.000000 0.000001 0.000001 -0.000000 -3.408967 1.421547 4.299678 -1.730533 1.583023 2.319174 -1.793764 1.420676 2.381509 -6.540335 -9.741335 0.913544 -12.971490 -44.248622 -12.452737 -0.000002 -0.000002 0.000000 -0.000002 -0.000002 0.000000 -0.000002 -0.000002 0.000000 1.605046 -5.996523 -8.241737 6.462673 28.045870 -52.927061 -0.000002 -33.790121 0.000006 -8.376066 6.006129 -14.050740 4.058524 30.384455 2.638391 3.939052 7.948709 0.746820 0.000000 -0.000001 -0.000001 0.496445 2.571605 -21.849282 0.537653 2.672015 -22.750385 -0.000001 0.000002 -0.000001 0.000005 -0.001922 0.015963 -0.000001 0.001924 -0.015977 0.000002 -0.000000 0.000004 0.000007 0.000001 -0.000000 -0.000014 -0.000001 -0.000011 0.000002 0.000001 -0.000005 1.996639 6.340044 -21.455504 0.542957 -1.386954 -23.222268 -0.000001 0.000002 0.000000 -0.000000 0.000006 -0.000007 -2.814059 -9.278624 -18.454282 -44.398514 27.958520 -10.660208 0.000059 52.601804 -0.000065 -29.759920 -37.884518 -58.090356 24.959261 -13.898977 19.283159 4.637191 -8.634132 -0.225415 -0.000002 0.000000 -0.000000 1.524832 -4.349868 38.620881 2.369307 -5.231608 48.706052 0.000003 0.000002 -0.000001 -0.000004 -0.000001 0.000011 -0.000006 -0.000016 0.000003 0.000003 -0.000003 -0.000001 -0.000013 -0.000010 0.000009 0.000010 0.000015 0.000034 -0.000000 -0.000002 0.000002 1.524835 -4.349849 38.620881 2.369298 -5.231600 48.706062 0.000001 -0.000002 -0.000004 -0.000002 -0.000001 -0.000001 -0.000001 -0.000001 -0.000000 -0.000001 -0.000001 -0.000000 -0.000001 -0.000001 -0.000000 -0.000001 -0.000001 -0.000000 -0.000001 -0.000001 -0.000000 0.000001 0.000000 -0.000000 -0.000001 -0.000001 -0.000000 -0.000001 -0.000001 -0.000000 0.000001 0.000000 -0.000000 0.000001 -0.000000 -0.000000 0.000001 -0.000000 -0.000000 -0.000000 -0.000000 0.000001 
